ffmpeg started on 2025-06-27 at 10:22:57
Report written to "D:\Convert\FFMetrics\reports\ssim_report-6.txt"
Log level: 32
Command line:
ffmpeg -hide_banner -nostdin -i "G:\\\xc0\xed\xe8\xec\xe5\\[\xd2\xee\xef-4]\\\xd2\xee\xea\xe8\xe9\xf1\xea\xe8\xe9 \xc3\xf3\xeb\xfc\\\xd2\xc2-4\\Tokyo_Ghoul_Re_[15]_[AniLibria_TV]_[HDTVRip_720p]_HEVC.mkv" -i "G:\\\xc0\xed\xe8\xec\xe5\\[\xd2\xee\xef-4]\\\xd2\xee\xea\xe8\xe9\xf1\xea\xe8\xe9 \xc3\xf3\xeb\xfc\\\xd2\xc2-4\\Tokyo_Ghoul_Re_[15]_[AniLibria_TV]_[HDTVRip_720p].mkv" -lavfi "[0:v]settb=AVTB,setpts=PTS-STARTPTS,format=pix_fmts=yuv420p10,fps=24000/1001,scale=1280:720:flags=bicubic[main];[1:v]settb=AVTB,setpts=PTS-STARTPTS,format=pix_fmts=yuv420p,fps=24000/1001,scale=1280:720:flags=bicubic[ref];[main][ref]ssim=eof_action=endall:stats_file='D\\:/Convert/FFMetrics/logs/ssim_logfile-6.txt'" -f null -
Input #0, matroska,webm, from 'G:\Аниме\[Топ-4]\Токийский Гуль\ТВ-4\Tokyo_Ghoul_Re_[15]_[AniLibria_TV]_[HDTVRip_720p]_HEVC.mkv':
  Metadata:
    ENCODER         : Lavf61.7.100
  Duration: 00:24:30.10, start: -0.021000, bitrate: 688 kb/s
  Stream #0:0(jpn): Video: hevc (Main 10), yuv420p10le(tv, bt709, progressive), 1280x720 [SAR 1:1 DAR 16:9], 23.98 fps, 23.98 tbr, 1k tbn (default)
      Metadata:
        ENCODER         : Lavc61.19.100 libx265
        BPS             : 490158
        DURATION        : 00:24:29.968708333
        NUMBER_OF_FRAMES: 35244
        NUMBER_OF_BYTES : 90064696
        _STATISTICS_WRITING_APP: mkvpropedit v66.0.0 ('Josie') 64-bit
        _STATISTICS_WRITING_DATE_UTC: 2025-06-26 15:27:29
        _STATISTICS_TAGS: BPS DURATION NUMBER_OF_FRAMES NUMBER_OF_BYTES
  Stream #0:1(rus): Audio: aac (LC), 48000 Hz, stereo, fltp (default) (forced)
      Metadata:
        title           : AniLibria.TV
        ENCODER         : Lavc61.19.100 aac
        BPS             : 194182
        DURATION        : 00:24:30.079000000
        NUMBER_OF_FRAMES: 68911
        NUMBER_OF_BYTES : 35683001
        _STATISTICS_WRITING_APP: mkvpropedit v66.0.0 ('Josie') 64-bit
        _STATISTICS_WRITING_DATE_UTC: 2025-06-26 15:27:29
        _STATISTICS_TAGS: BPS DURATION NUMBER_OF_FRAMES NUMBER_OF_BYTES
  Stream #0:2(rus): Subtitle: ass (ssa) (default) (forced)
      Metadata:
        title           : Надписи
        BPS             : 44
        DURATION        : 00:23:22.560000000
        NUMBER_OF_FRAMES: 51
        NUMBER_OF_BYTES : 7781
        _STATISTICS_WRITING_APP: mkvpropedit v66.0.0 ('Josie') 64-bit
        _STATISTICS_WRITING_DATE_UTC: 2025-06-26 15:27:29
        _STATISTICS_TAGS: BPS DURATION NUMBER_OF_FRAMES NUMBER_OF_BYTES
  Stream #0:3(rus): Subtitle: ass (ssa)
      Metadata:
        title           : Полные
        BPS             : 127
        DURATION        : 00:24:15.250000000
        NUMBER_OF_FRAMES: 302
        NUMBER_OF_BYTES : 23194
        _STATISTICS_WRITING_APP: mkvpropedit v66.0.0 ('Josie') 64-bit
        _STATISTICS_WRITING_DATE_UTC: 2025-06-26 15:27:29
        _STATISTICS_TAGS: BPS DURATION NUMBER_OF_FRAMES NUMBER_OF_BYTES
[matroska,webm @ 000002319fad46c0] Could not find codec parameters for stream 15 (Attachment: none): unknown codec
Consider increasing the value for the 'analyzeduration' (0) and 'probesize' (5000000) options
Input #1, matroska,webm, from 'G:\Аниме\[Топ-4]\Токийский Гуль\ТВ-4\Tokyo_Ghoul_Re_[15]_[AniLibria_TV]_[HDTVRip_720p].mkv':
  Metadata:
    encoder         : libebml v1.4.2 + libmatroska v1.6.4
    creation_time   : 2024-12-27T09:48:27.000000Z
  Duration: 00:24:30.08, start: 0.000000, bitrate: 2270 kb/s
  Stream #1:0(jpn): Video: h264 (Main), yuv420p(tv, bt709, progressive), 1280x720, SAR 1:1 DAR 16:9, 23.98 fps, 23.98 tbr, 1k tbn (default)
      Metadata:
        BPS             : 2065597
        DURATION        : 00:24:29.969000000
        NUMBER_OF_FRAMES: 35244
        NUMBER_OF_BYTES : 379545532
        _STATISTICS_WRITING_APP: mkvmerge v66.0.0 ('Josie') 64-bit
        _STATISTICS_WRITING_DATE_UTC: 2024-12-27 09:48:27
        _STATISTICS_TAGS: BPS DURATION NUMBER_OF_FRAMES NUMBER_OF_BYTES
  Stream #1:1(rus): Audio: aac (LC), 48000 Hz, stereo, fltp (default) (forced)
      Metadata:
        title           : AniLibria.TV
        BPS             : 192092
        DURATION        : 00:24:30.079000000
        NUMBER_OF_FRAMES: 68910
        NUMBER_OF_BYTES : 35298808
        _STATISTICS_WRITING_APP: mkvmerge v66.0.0 ('Josie') 64-bit
        _STATISTICS_WRITING_DATE_UTC: 2024-12-27 09:48:27
        _STATISTICS_TAGS: BPS DURATION NUMBER_OF_FRAMES NUMBER_OF_BYTES
  Stream #1:2(rus): Subtitle: ass (ssa) (default) (forced)
      Metadata:
        title           : Надписи
        BPS             : 44
        DURATION        : 00:23:22.560000000
        NUMBER_OF_FRAMES: 51
        NUMBER_OF_BYTES : 7781
        _STATISTICS_WRITING_APP: mkvmerge v66.0.0 ('Josie') 64-bit
        _STATISTICS_WRITING_DATE_UTC: 2024-12-27 09:48:27
        _STATISTICS_TAGS: BPS DURATION NUMBER_OF_FRAMES NUMBER_OF_BYTES
  Stream #1:3(rus): Subtitle: ass (ssa)
      Metadata:
        title           : Полные
        BPS             : 127
        DURATION        : 00:24:15.250000000
        NUMBER_OF_FRAMES: 302
        NUMBER_OF_BYTES : 23194
        _STATISTICS_WRITING_APP: mkvmerge v66.0.0 ('Josie') 64-bit
        _STATISTICS_WRITING_DATE_UTC: 2024-12-27 09:48:27
        _STATISTICS_TAGS: BPS DURATION NUMBER_OF_FRAMES NUMBER_OF_BYTES
  Stream #1:4: Attachment: ttf
      Metadata:
        filename        : 10322__2.ttf
        mimetype        : application/x-truetype-font
  Stream #1:5: Attachment: ttf
      Metadata:
        filename        : 10352__0.ttf
        mimetype        : application/x-truetype-font
  Stream #1:6: Attachment: ttf
      Metadata:
        filename        : Aero Matics Display Bold Italic.ttf
        mimetype        : application/x-truetype-font
  Stream #1:7: Attachment: ttf
      Metadata:
        filename        : Aero Matics Display Bold.ttf
        mimetype        : application/x-truetype-font
  Stream #1:8: Attachment: ttf
      Metadata:
        filename        : Aero Matics Display Italic.ttf
        mimetype        : application/x-truetype-font
  Stream #1:9: Attachment: ttf
      Metadata:
        filename        : Aero Matics Display Light Italic.ttf
        mimetype        : application/x-truetype-font
  Stream #1:10: Attachment: ttf
      Metadata:
        filename        : Aero Matics Display Light.ttf
        mimetype        : application/x-truetype-font
  Stream #1:11: Attachment: ttf
      Metadata:
        filename        : Aero_Matics_Display_Regular.ttf
        mimetype        : application/x-truetype-font
  Stream #1:12: Attachment: ttf
      Metadata:
        filename        : BenchNine-Regular.ttf
        mimetype        : application/x-truetype-font
  Stream #1:13: Attachment: ttf
      Metadata:
        filename        : OpenSanA.ttf
        mimetype        : application/x-truetype-font
  Stream #1:14: Attachment: ttf
      Metadata:
        filename        : REDOCTOB.otf
        mimetype        : application/x-truetype-font
  Stream #1:15: Attachment: none
      Metadata:
        filename        : simsun_0.ttc
        mimetype        : application/octet-stream
  Stream #1:16: Attachment: ttf
      Metadata:
        filename        : Snowstorm.ttf
        mimetype        : application/x-truetype-font
  Stream #1:17: Attachment: ttf
      Metadata:
        filename        : TEMPSITC.TTF
        mimetype        : application/x-truetype-font
  Stream #1:18: Attachment: ttf
      Metadata:
        filename        : TrajanPro3-Bold.otf
        mimetype        : application/x-truetype-font
  Stream #1:19: Attachment: ttf
      Metadata:
        filename        : TrajanPro3-Regular.otf
        mimetype        : application/x-truetype-font
  Stream #1:20: Attachment: ttf
      Metadata:
        filename        : v_CCTimSale_v1.11.ttf
        mimetype        : application/x-truetype-font
  Stream #1:21: Attachment: ttf
      Metadata:
        filename        : v_HolyMackerelli_v1.9.ttf
        mimetype        : application/x-truetype-font
  Stream #1:22: Attachment: ttf
      Metadata:
        filename        : v_StraightJacketBB_v1.1.ttf
        mimetype        : application/x-truetype-font
  Stream #1:23: Attachment: ttf
      Metadata:
        filename        : XENI.TTF
        mimetype        : application/x-truetype-font
Stream mapping:
  Stream #0:0 (hevc) -> settb:default
  Stream #1:0 (h264) -> settb:default
  ssim:default -> Stream #0:0 (wrapped_avframe)
  Stream #0:1 -> #0:1 (aac (native) -> pcm_s16le (native))
Output #0, null, to 'pipe:':
  Metadata:
    encoder         : Lavf61.7.100
  Stream #0:0: Video: wrapped_avframe, yuv420p10le(tv, bt709, progressive), 1280x720 [SAR 1:1 DAR 16:9], q=2-31, 200 kb/s, 23.98 fps, 23.98 tbn
      Metadata:
        encoder         : Lavc61.19.100 wrapped_avframe
  Stream #0:1(rus): Audio: pcm_s16le, 48000 Hz, stereo, s16, 1536 kb/s (default) (forced)
      Metadata:
        title           : AniLibria.TV
        _STATISTICS_TAGS: BPS DURATION NUMBER_OF_FRAMES NUMBER_OF_BYTES
        BPS             : 194182
        DURATION        : 00:24:30.079000000
        NUMBER_OF_FRAMES: 68911
        NUMBER_OF_BYTES : 35683001
        _STATISTICS_WRITING_APP: mkvpropedit v66.0.0 ('Josie') 64-bit
        _STATISTICS_WRITING_DATE_UTC: 2025-06-26 15:27:29
        encoder         : Lavc61.19.100 pcm_s16le
frame=  464 fps=0.0 q=-0.0 size=N/A time=00:00:19.35 bitrate=N/A speed=38.2x    frame= 1012 fps=980 q=-0.0 size=N/A time=00:00:42.20 bitrate=N/A speed=40.9x    frame= 1432 fps=929 q=-0.0 size=N/A time=00:00:59.72 bitrate=N/A speed=38.7x    frame= 1881 fps=916 q=-0.0 size=N/A time=00:01:18.45 bitrate=N/A speed=38.2x    frame= 2198 fps=852 q=-0.0 size=N/A time=00:01:31.67 bitrate=N/A speed=35.5x    frame= 2597 fps=841 q=-0.0 size=N/A time=00:01:48.31 bitrate=N/A speed=35.1x    frame= 3113 fps=865 q=-0.0 size=N/A time=00:02:09.83 bitrate=N/A speed=36.1x    frame= 3652 fps=886 q=-0.0 size=N/A time=00:02:32.31 bitrate=N/A speed=  37x    frame= 4021 fps=868 q=-0.0 size=N/A time=00:02:47.70 bitrate=N/A speed=36.2x    frame= 4530 fps=878 q=-0.0 size=N/A time=00:03:08.93 bitrate=N/A speed=36.6x    frame= 4990 fps=881 q=-0.0 size=N/A time=00:03:28.12 bitrate=N/A speed=36.7x    frame= 5566 fps=899 q=-0.0 size=N/A time=00:03:52.14 bitrate=N/A speed=37.5x    frame= 6098 fps=910 q=-0.0 size=N/A time=00:04:14.33 bitrate=N/A speed=  38x    frame= 6497 fps=900 q=-0.0 size=N/A time=00:04:30.97 bitrate=N/A speed=37.5x    frame= 7024 fps=909 q=-0.0 size=N/A time=00:04:52.95 bitrate=N/A speed=37.9x    frame= 7463 fps=904 q=-0.0 size=N/A time=00:05:11.26 bitrate=N/A speed=37.7x    frame= 7797 fps=890 q=-0.0 size=N/A time=00:05:25.19 bitrate=N/A speed=37.1x    frame= 8302 fps=894 q=-0.0 size=N/A time=00:05:46.26 bitrate=N/A speed=37.3x    frame= 8787 fps=897 q=-0.0 size=N/A time=00:06:06.49 bitrate=N/A speed=37.4x    frame= 9256 fps=897 q=-0.0 size=N/A time=00:06:26.05 bitrate=N/A speed=37.4x    frame= 9693 fps=896 q=-0.0 size=N/A time=00:06:44.27 bitrate=N/A speed=37.4x    frame=10155 fps=895 q=-0.0 size=N/A time=00:07:03.54 bitrate=N/A speed=37.3x    frame=10566 fps=891 q=-0.0 size=N/A time=00:07:20.69 bitrate=N/A speed=37.2x    frame=11074 fps=895 q=-0.0 size=N/A time=00:07:41.87 bitrate=N/A speed=37.3x    frame=11546 fps=896 q=-0.0 size=N/A time=00:08:01.56 bitrate=N/A speed=37.4x    frame=12090 fps=902 q=-0.0 size=N/A time=00:08:24.25 bitrate=N/A speed=37.6x    frame=12404 fps=891 q=-0.0 size=N/A time=00:08:37.35 bitrate=N/A speed=37.2x    frame=12883 fps=892 q=-0.0 size=N/A time=00:08:57.32 bitrate=N/A speed=37.2x    frame=13401 fps=896 q=-0.0 size=N/A time=00:09:18.93 bitrate=N/A speed=37.4x    frame=13782 fps=891 q=-0.0 size=N/A time=00:09:34.82 bitrate=N/A speed=37.1x    frame=14071 fps=880 q=-0.0 size=N/A time=00:09:46.87 bitrate=N/A speed=36.7x    frame=14397 fps=873 q=-0.0 size=N/A time=00:10:00.47 bitrate=N/A speed=36.4x    frame=14812 fps=870 q=-0.0 size=N/A time=00:10:17.78 bitrate=N/A speed=36.3x    frame=15174 fps=865 q=-0.0 size=N/A time=00:10:32.88 bitrate=N/A speed=36.1x    frame=15512 fps=859 q=-0.0 size=N/A time=00:10:46.97 bitrate=N/A speed=35.8x    frame=15959 fps=859 q=-0.0 size=N/A time=00:11:05.62 bitrate=N/A speed=35.8x    frame=16403 fps=859 q=-0.0 size=N/A time=00:11:24.14 bitrate=N/A speed=35.8x    frame=16889 fps=862 q=-0.0 size=N/A time=00:11:44.41 bitrate=N/A speed=35.9x    frame=17213 fps=855 q=-0.0 size=N/A time=00:11:57.92 bitrate=N/A speed=35.7x    frame=17555 fps=851 q=-0.0 size=N/A time=00:12:12.18 bitrate=N/A speed=35.5x    frame=17950 fps=848 q=-0.0 size=N/A time=00:12:28.66 bitrate=N/A speed=35.4x    frame=18479 fps=853 q=-0.0 size=N/A time=00:12:50.72 bitrate=N/A speed=35.6x    frame=19006 fps=857 q=-0.0 size=N/A time=00:13:12.70 bitrate=N/A speed=35.7x    frame=19427 fps=856 q=-0.0 size=N/A time=00:13:30.26 bitrate=N/A speed=35.7x    frame=19836 fps=855 q=-0.0 size=N/A time=00:13:47.32 bitrate=N/A speed=35.6x    frame=20234 fps=853 q=-0.0 size=N/A time=00:14:03.92 bitrate=N/A speed=35.6x    frame=20644 fps=851 q=-0.0 size=N/A time=00:14:21.02 bitrate=N/A speed=35.5x    frame=21085 fps=852 q=-0.0 size=N/A time=00:14:39.42 bitrate=N/A speed=35.5x    frame=21608 fps=855 q=-0.0 size=N/A time=00:15:01.23 bitrate=N/A speed=35.6x    frame=22167 fps=860 q=-0.0 size=N/A time=00:15:24.54 bitrate=N/A speed=35.8x    frame=22725 fps=864 q=-0.0 size=N/A time=00:15:47.82 bitrate=N/A speed=  36x    frame=23236 fps=866 q=-0.0 size=N/A time=00:16:09.13 bitrate=N/A speed=36.1x    frame=23786 fps=870 q=-0.0 size=N/A time=00:16:32.07 bitrate=N/A speed=36.3x    frame=24292 fps=872 q=-0.0 size=N/A time=00:16:53.17 bitrate=N/A speed=36.4x    frame=24860 fps=876 q=-0.0 size=N/A time=00:17:16.86 bitrate=N/A speed=36.5x    frame=25392 fps=879 q=-0.0 size=N/A time=00:17:39.05 bitrate=N/A speed=36.7x    frame=25885 fps=880 q=-0.0 size=N/A time=00:17:59.62 bitrate=N/A speed=36.7x    frame=26462 fps=884 q=-0.0 size=N/A time=00:18:23.68 bitrate=N/A speed=36.9x    frame=26876 fps=883 q=-0.0 size=N/A time=00:18:40.95 bitrate=N/A speed=36.8x    frame=27366 fps=884 q=-0.0 size=N/A time=00:19:01.39 bitrate=N/A speed=36.9x    frame=27811 fps=884 q=-0.0 size=N/A time=00:19:19.95 bitrate=N/A speed=36.9x    frame=28167 fps=881 q=-0.0 size=N/A time=00:19:34.79 bitrate=N/A speed=36.7x    frame=28685 fps=883 q=-0.0 size=N/A time=00:19:56.40 bitrate=N/A speed=36.8x    frame=29239 fps=886 q=-0.0 size=N/A time=00:20:19.50 bitrate=N/A speed=36.9x    frame=29712 fps=886 q=-0.0 size=N/A time=00:20:39.23 bitrate=N/A speed=  37x    frame=30044 fps=882 q=-0.0 size=N/A time=00:20:53.08 bitrate=N/A speed=36.8x    frame=30503 fps=883 q=-0.0 size=N/A time=00:21:12.22 bitrate=N/A speed=36.8x    frame=30898 fps=881 q=-0.0 size=N/A time=00:21:28.70 bitrate=N/A speed=36.7x    frame=31321 fps=880 q=-0.0 size=N/A time=00:21:46.34 bitrate=N/A speed=36.7x    frame=31819 fps=881 q=-0.0 size=N/A time=00:22:07.11 bitrate=N/A speed=36.8x    frame=32285 fps=882 q=-0.0 size=N/A time=00:22:26.55 bitrate=N/A speed=36.8x    frame=32691 fps=880 q=-0.0 size=N/A time=00:22:43.48 bitrate=N/A speed=36.7x    frame=33085 fps=879 q=-0.0 size=N/A time=00:22:59.92 bitrate=N/A speed=36.6x    frame=33395 fps=875 q=-0.0 size=N/A time=00:23:12.84 bitrate=N/A speed=36.5x    frame=33731 fps=872 q=-0.0 size=N/A time=00:23:26.86 bitrate=N/A speed=36.4x    frame=34006 fps=867 q=-0.0 size=N/A time=00:23:38.33 bitrate=N/A speed=36.2x    frame=34384 fps=866 q=-0.0 size=N/A time=00:23:54.09 bitrate=N/A speed=36.1x    frame=34824 fps=866 q=-0.0 size=N/A time=00:24:12.45 bitrate=N/A speed=36.1x    [Parsed_ssim_10 @ 00000231a05f4780] SSIM Y:0.990734 (20.330913) U:0.993528 (21.889297) V:0.993815 (22.086592) All:0.991713 (20.815949)
[out#0/null @ 00000231a099ed40] video:15144KiB audio:275644KiB subtitle:0KiB other streams:0KiB global headers:0KiB muxing overhead: unknown
frame=35244 fps=868 q=-0.0 Lsize=N/A time=00:24:29.96 bitrate=N/A speed=36.2x    
